<?xml version="1.0" standalone="no"?>
<!DOCTYPE svg PUBLIC "-//W3C//DTD SVG 20010904//EN"
 "http://www.w3.org/TR/2001/REC-SVG-20010904/DTD/svg10.dtd">
<svg version="1.0" xmlns="http://www.w3.org/2000/svg"
 width="229.000000pt" height="39.000000pt" viewBox="0 0 229.000000 39.000000"
 preserveAspectRatio="xMidYMid meet">

<g transform="translate(0.000000,39.000000) scale(0.100000,-0.100000)"
fill="#000000" stroke="none">
<path d="M720 319 c-47 -4 -119 -10 -160 -15 -41 -4 -91 -7 -110 -7 -28 2 -31
0 -17 -8 25 -14 21 -33 -15 -68 -24 -24 -28 -31 -15 -31 10 0 20 -7 24 -15 13
-34 -67 -86 -155 -100 -25 -4 -39 -11 -36 -17 4 -7 25 -7 58 -2 28 4 69 8 90
8 31 1 40 5 42 20 9 60 48 183 62 194 15 11 62 17 62 7 0 -2 -11 -38 -25 -79
-14 -41 -25 -83 -25 -94 0 -13 -10 -24 -27 -30 -25 -8 -22 -10 32 -17 33 -4
74 -9 90 -11 17 -1 210 -6 430 -10 471 -8 845 10 845 41 0 22 37 45 73 45 20
0 37 5 37 11 0 7 -18 10 -47 9 -69 -4 -73 -2 -73 21 0 27 61 86 115 111 30 15
33 18 12 13 -18 -4 -33 0 -43 10 -30 30 -41 20 -73 -67 -9 -24 -16 -28 -51
-28 -38 0 -41 2 -35 23 6 21 6 21 -15 -3 -11 -14 -41 -53 -66 -87 -41 -56 -50
-63 -80 -63 -39 0 -43 9 -13 36 16 15 19 25 14 54 -9 49 -20 56 -34 22 -13
-30 -44 -57 -97 -85 -35 -18 -110 -37 -118 -30 -2 3 2 26 10 51 18 59 17 62
-4 36 -45 -55 -115 -83 -215 -87 -59 -2 -67 0 -67 15 0 22 -16 24 -27 3 -10
-17 -93 -33 -93 -17 0 5 16 35 35 67 19 32 40 74 46 94 6 20 14 39 18 42 3 4
36 10 73 14 l66 6 -8 -38 c-13 -64 -19 -123 -10 -118 4 2 10 19 14 37 21 105
22 106 80 113 56 7 115 -12 117 -38 0 -6 4 -2 9 9 12 32 92 41 148 19 33 -14
48 -15 73 -6 47 16 51 14 44 -19 -8 -38 5 -38 33 -1 19 26 26 29 57 24 26 -4
35 -2 35 8 0 11 -17 15 -62 17 -35 1 -148 7 -253 13 -193 11 -621 9 -775 -2z
m5 -31 c14 -6 25 -16 25 -21 0 -18 -34 -36 -68 -37 -35 0 -75 -34 -88 -72 -11
-36 37 -51 72 -22 18 15 18 15 -8 11 -16 -2 -28 -1 -28 4 0 24 16 39 48 44 21
4 47 8 60 11 53 11 -3 -87 -69 -122 -41 -21 -105 -18 -129 6 -79 79 78 247
185 198z m284 -3 c37 -19 44 -39 27 -78 -26 -62 -87 -106 -174 -125 -36 -9
-42 -8 -42 7 0 13 25 112 46 183 8 27 100 36 143 13z"/>
<path d="M918 185 c-17 -51 -8 -57 28 -18 27 29 28 56 3 61 -12 2 -21 -11 -31
-43z"/>
<path d="M2053 282 c26 -29 21 -50 -15 -60 -18 -5 -37 -6 -41 -2 -13 11 -47 0
-47 -16 0 -10 8 -12 30 -8 102 21 107 -57 5 -105 -24 -11 -59 -22 -77 -22
l-33 -2 35 -6 c61 -11 345 64 357 95 8 20 -46 62 -105 81 -30 9 -65 27 -78 40
-30 27 -54 31 -31 5z"/>
<path d="M247 276 c-3 -8 -32 -22 -64 -31 -123 -35 -137 -72 -43 -113 41 -18
60 -32 60 -44 0 -10 5 -18 10 -18 6 0 10 4 10 9 0 5 11 55 24 110 13 56 20
101 16 101 -4 0 -10 -6 -13 -14z"/>
<path d="M333 225 c-9 -25 2 -27 22 -5 17 18 17 20 1 20 -9 0 -19 -7 -23 -15z"/>
<path d="M1111 199 c-13 -39 -14 -57 -2 -43 9 9 23 74 17 74 -2 0 -9 -14 -15
-31z"/>
<path d="M1290 189 c-14 -52 -8 -58 24 -24 31 34 34 65 6 65 -14 0 -22 -11
-30 -41z"/>
<path d="M1477 186 c-18 -53 -11 -57 27 -19 29 29 31 56 5 61 -12 2 -21 -10
-32 -42z"/>
<path d="M310 146 c0 -9 7 -12 20 -9 31 8 34 23 6 23 -16 0 -26 -6 -26 -14z"/>
</g>
</svg>
