<?xml version="1.0" standalone="no"?>
<!DOCTYPE svg PUBLIC "-//W3C//DTD SVG 20010904//EN"
 "http://www.w3.org/TR/2001/REC-SVG-20010904/DTD/svg10.dtd">
<svg version="1.0" xmlns="http://www.w3.org/2000/svg"
 width="1088.000000pt" height="880.000000pt" viewBox="0 0 1088.000000 880.000000"
 preserveAspectRatio="xMidYMid meet">

<g transform="translate(0.000000,880.000000) scale(0.100000,-0.100000)"
fill="#000000" stroke="none">
<path d="M3795 5539 c-82 -34 -332 -71 -465 -68 -93 1 -262 -17 -315 -34 -141
-46 -189 -57 -289 -65 -60 -5 -117 -7 -127 -5 -28 8 -69 -5 -69 -21 0 -10 -23
-18 -72 -26 -40 -7 -129 -23 -197 -37 l-124 -24 -26 24 c-38 35 -132 83 -154
78 -5 -1 -26 3 -48 9 -68 19 -274 -16 -484 -80 -33 -10 -106 -29 -163 -41
l-102 -23 -1 -81 c0 -44 -3 -98 -7 -120 -7 -39 -9 -40 -98 -77 -170 -69 -347
-168 -467 -260 -121 -92 -227 -247 -227 -329 0 -22 -4 -39 -10 -39 -5 0 -10
-7 -10 -15 0 -8 5 -15 10 -15 6 0 10 -17 10 -39 0 -24 14 -66 37 -112 67 -137
249 -290 480 -404 l101 -50 -5 -55 c-2 -30 -11 -89 -18 -130 -8 -41 -16 -100
-20 -131 l-6 -56 47 -7 c26 -3 70 -6 98 -7 67 -1 81 -8 83 -43 3 -42 15 -50
88 -54 132 -9 322 36 472 111 37 19 73 32 80 30 6 -2 15 1 19 8 4 7 13 -9 23
-41 l16 -53 73 -1 c66 -1 72 1 70 18 -3 20 2 23 105 55 27 9 51 10 90 2 28 -6
107 -22 175 -36 67 -14 136 -25 153 -25 24 0 32 -6 40 -30 10 -28 15 -30 57
-30 29 0 59 -8 80 -20 33 -20 40 -14 21 22 -6 11 -8 22 -5 25 3 3 45 -2 93
-11 48 -9 111 -18 138 -20 28 -2 118 -13 200 -24 185 -26 493 -60 600 -66 44
-3 181 -14 305 -25 124 -11 258 -20 298 -20 39 0 168 -6 285 -13 285 -17 1488
-17 1762 0 110 7 232 13 270 13 39 0 174 9 300 20 127 11 266 22 310 25 101 6
404 39 600 65 83 11 169 22 193 24 24 2 87 12 140 21 62 10 97 13 100 6 2 -6
34 2 75 18 46 18 103 30 157 35 86 7 259 33 272 41 4 3 30 -7 57 -21 28 -14
59 -25 69 -25 10 0 36 -9 57 -21 22 -11 73 -25 113 -30 41 -5 85 -17 98 -25
22 -15 27 -14 76 10 29 14 76 31 103 37 132 32 151 40 200 84 58 52 131 90
265 135 190 64 441 174 535 233 173 109 287 211 330 297 37 73 46 160 25 237
-9 34 -23 68 -31 77 -31 34 -37 44 -53 92 -50 152 -228 315 -486 447 -186 95
-205 107 -218 134 -6 15 -12 35 -12 44 0 10 -3 19 -7 21 -16 6 -50 64 -62 103
-20 63 -78 142 -126 170 -36 21 -56 25 -120 25 -91 0 -145 -20 -253 -92 -40
-27 -80 -52 -90 -55 -15 -6 -16 -5 -2 12 12 15 12 17 1 10 -11 -6 -13 -4 -8 8
3 8 0 21 -8 27 -7 6 -11 19 -8 29 2 10 -5 50 -17 89 -18 58 -26 72 -42 72 -11
0 -56 16 -101 35 -49 21 -83 31 -87 25 -7 -11 -129 -29 -201 -30 -36 0 -51 -5
-72 -28 -28 -29 -120 -76 -169 -87 -16 -3 -28 -12 -28 -20 0 -9 -10 -15 -25
-15 -16 0 -25 6 -25 15 0 15 -7 17 -110 21 -36 1 -77 12 -120 32 -74 34 -151
45 -230 34 -77 -11 -334 3 -400 22 -178 50 -177 50 -470 57 -160 3 -303 11
-325 17 -22 6 -150 16 -285 22 -323 14 -1829 13 -2053 -1 -260 -16 -440 -15
-607 6 -33 4 -59 -1 -95 -16z m5231 -146 c-13 -44 -45 -154 -61 -213 -9 -36
-23 -85 -31 -110 -7 -25 -16 -61 -19 -80 -3 -19 -10 -48 -15 -65 -5 -16 -12
-48 -15 -70 -3 -22 -12 -68 -20 -103 -8 -35 -15 -79 -15 -97 0 -28 -5 -36 -22
-40 -124 -28 -391 -76 -395 -71 -2 2 1 15 7 30 5 15 12 39 15 54 2 15 26 114
53 220 27 106 46 189 42 185 -30 -34 -500 -1098 -500 -1132 0 -7 -7 -25 -15
-39 -11 -21 -135 -353 -160 -429 -4 -12 -219 -8 -296 6 l-36 6 29 75 c16 41
33 83 39 94 6 10 12 26 14 35 2 9 33 88 70 176 74 176 74 178 41 335 -8 36
-22 110 -31 165 -17 109 -36 217 -64 365 l-18 95 -7 -105 c-26 -355 -207 -718
-486 -975 -85 -78 -114 -99 -214 -161 -90 -55 -208 -104 -296 -124 -30 -6 -63
-14 -73 -17 -16 -4 -17 1 -12 49 9 84 35 265 52 368 9 52 16 102 15 110 0 8 6
49 14 90 8 41 17 100 19 130 3 30 12 90 20 134 22 118 17 130 -16 36 -55 -162
-158 -337 -287 -491 -127 -152 -311 -288 -504 -372 -29 -13 -196 -57 -214 -57
-3 0 -2 22 2 49 l6 50 -83 -23 c-46 -13 -106 -29 -134 -36 -27 -7 -84 -23
-125 -36 -41 -12 -76 -21 -76 -21 -2 3 14 194 22 255 l6 52 -28 -1 c-16 0 -47
-6 -69 -12 -43 -14 -43 -14 -65 -147 -6 -35 -16 -70 -21 -76 -6 -7 -33 -15
-62 -19 -29 -3 -108 -17 -177 -30 -160 -30 -200 -36 -200 -26 0 4 18 64 41
132 44 133 115 361 154 499 29 98 48 164 70 237 9 28 18 62 20 76 3 13 11 43
19 66 9 22 13 41 11 41 -2 0 2 17 9 38 17 48 138 533 152 612 16 84 18 86 112
105 141 27 281 55 377 75 50 11 109 22 132 25 l43 6 -6 -48 c-3 -26 -12 -95
-20 -153 -7 -58 -16 -134 -18 -170 -2 -36 -11 -141 -20 -235 -17 -196 -37
-675 -35 -850 1 -66 4 -104 6 -85 2 19 10 73 17 120 8 47 22 139 31 205 9 66
23 158 31 205 8 47 16 103 18 125 2 22 11 87 20 145 45 291 71 471 81 562 6
52 9 57 38 68 120 44 292 80 384 80 105 0 217 -40 266 -95 46 -51 115 -168
122 -205 0 -3 6 -21 13 -40 7 -20 14 -64 17 -99 6 -73 15 -94 15 -35 0 21 6
73 14 114 8 41 17 104 20 140 12 122 14 126 59 143 296 110 529 99 649 -29 36
-39 95 -139 103 -175 4 -16 10 -27 15 -24 4 3 6 14 3 24 -4 16 10 27 78 61 45
23 99 52 118 64 20 12 75 43 123 69 l87 47 -6 -182 c-6 -190 3 -418 17 -418 7
0 182 424 218 528 8 23 20 42 26 42 19 0 310 -61 315 -66 5 -5 38 111 47 166
12 71 23 82 89 87 33 2 110 10 170 17 156 19 157 19 151 -1z m-7034 -142 c120
-54 153 -177 102 -374 -34 -134 -138 -308 -248 -417 -36 -35 -66 -68 -66 -72
0 -4 19 -8 43 -8 90 0 145 -32 184 -105 22 -41 19 -185 -6 -257 -46 -133 -117
-236 -249 -359 -68 -64 -116 -101 -172 -134 -10 -6 -24 -16 -31 -22 -19 -15
-149 -71 -179 -77 -145 -29 -193 -36 -262 -36 l-80 0 6 25 c4 14 11 61 16 103
6 42 14 100 20 127 5 28 12 73 15 100 2 28 11 95 19 150 22 150 50 371 91 720
8 72 22 186 30 255 8 69 17 158 20 199 3 41 7 76 9 78 2 2 16 6 32 9 16 2 49
11 74 19 61 20 177 51 280 74 47 11 94 22 105 25 49 12 201 -2 247 -23z m1378
1 c62 -28 125 -94 160 -166 50 -105 53 -96 -61 -236 -55 -69 -107 -133 -114
-143 -12 -17 -14 -17 -38 7 -32 31 -65 40 -121 32 -58 -9 -115 -52 -173 -129
-137 -184 -248 -548 -214 -700 43 -196 227 -220 356 -47 40 53 101 177 92 186
-5 5 -101 -17 -201 -46 -38 -11 -72 -18 -74 -16 -2 3 1 28 7 58 26 132 41 217
47 259 6 45 7 47 46 53 23 4 73 15 112 26 39 11 107 28 151 39 44 11 121 31
170 44 107 29 103 35 85 -108 -30 -245 -141 -523 -292 -727 -122 -165 -229
-243 -388 -284 -169 -43 -306 28 -385 200 -55 118 -68 184 -73 364 -4 167 6
261 45 422 89 367 294 716 505 857 121 81 256 102 358 55z m1280 -5 c78 -19
133 -54 184 -120 141 -182 163 -408 72 -732 -102 -365 -397 -730 -721 -892
-33 -16 -77 -37 -97 -46 -42 -19 -208 -60 -214 -54 -3 2 0 38 6 78 6 41 17
124 26 184 8 61 22 151 30 202 9 50 17 106 18 125 2 18 10 79 19 136 20 119
39 250 62 412 9 63 23 156 31 205 8 50 17 113 19 140 3 28 12 88 20 135 8 47
15 99 15 116 0 30 2 31 103 64 174 57 318 72 427 47z m5067 -13 c64 -48 93
-158 93 -352 0 -135 -8 -182 -30 -182 -11 0 -107 -43 -215 -94 -39 -19 -74
-30 -79 -26 -5 5 -10 23 -11 40 -3 34 -30 70 -52 70 -27 0 -90 -39 -126 -79
-51 -56 -67 -93 -67 -150 0 -41 4 -52 22 -62 22 -12 84 -8 183 10 65 13 191
13 231 2 42 -12 72 -38 95 -83 30 -59 27 -225 -7 -326 -108 -322 -451 -652
-679 -652 -47 0 -153 32 -193 58 -18 12 -22 21 -17 41 7 26 153 403 159 408 2
2 27 -8 57 -22 63 -29 98 -31 165 -8 50 17 70 27 137 71 57 38 80 103 48 135
-19 19 -165 11 -246 -13 -38 -11 -104 -23 -145 -25 -89 -6 -126 8 -174 68 -30
38 -31 41 -31 145 1 91 5 119 29 187 79 224 229 458 419 654 126 129 151 148
244 187 70 30 149 28 190 -2z m-7087 -4 c0 -6 -6 -39 -14 -73 -55 -237 -150
-739 -190 -1002 -41 -267 -49 -324 -52 -370 -2 -27 -10 -97 -18 -155 -8 -58
-12 -108 -10 -111 2 -4 -56 -25 -129 -49 -72 -23 -149 -49 -169 -56 -46 -17
-45 -18 -24 120 8 50 22 143 31 206 9 63 23 153 31 200 7 47 16 105 19 130 2
25 11 86 19 135 8 50 22 140 31 200 8 61 22 160 31 220 9 61 22 148 30 195 8
47 16 101 18 120 3 34 26 184 31 205 2 6 49 21 106 34 57 13 136 31 174 41 86
22 85 22 85 10z"/>
<path d="M5372 4910 c0 -19 2 -27 5 -17 2 9 2 25 0 35 -3 9 -5 1 -5 -18z"/>
<path d="M5351 4808 c-6 -35 -18 -92 -25 -128 -8 -36 -22 -103 -31 -150 -9
-47 -21 -103 -26 -125 -5 -22 -14 -62 -19 -90 -5 -27 -21 -104 -34 -169 -14
-66 -24 -122 -21 -124 2 -2 24 -1 49 2 l45 7 5 52 c28 293 39 400 51 507 18
157 27 280 22 280 -3 0 -10 -28 -16 -62z"/>
<path d="M7610 4826 c0 -14 4 -27 8 -30 5 -3 6 8 4 25 -5 35 -12 38 -12 5z"/>
<path d="M6175 4698 c-3 -24 -12 -74 -20 -113 -28 -148 -72 -415 -80 -485 -3
-25 -10 -71 -16 -102 -10 -61 -20 -158 -15 -158 3 0 81 102 137 180 34 47 124
216 144 271 81 221 74 373 -18 429 -20 12 -50 20 -79 20 l-46 0 -7 -42z"/>
<path d="M7056 4598 c-38 -203 -79 -453 -91 -553 -3 -27 -11 -87 -19 -132 -7
-46 -12 -83 -10 -83 5 0 140 185 171 235 60 98 105 191 138 290 29 87 33 112
31 190 -1 80 -4 95 -29 131 -33 48 -62 64 -121 64 l-43 0 -27 -142z"/>
<path d="M1630 4787 c-28 -10 -36 -19 -41 -47 -4 -19 -15 -73 -25 -120 -9 -47
-19 -103 -21 -124 -4 -37 -3 -39 14 -25 134 104 247 300 187 323 -24 9 -75 6
-114 -7z"/>
<path d="M1557 4135 c-32 -7 -63 -17 -68 -22 -12 -12 -39 -153 -39 -204 0 -50
8 -50 107 1 88 46 139 90 159 137 40 94 -9 121 -159 88z"/>
<path d="M4420 4718 c0 -13 -9 -63 -19 -113 -11 -49 -27 -135 -36 -190 -9 -55
-22 -138 -30 -185 -38 -230 -56 -392 -43 -384 10 6 116 147 143 189 37 59 115
213 139 279 94 249 50 426 -106 426 -43 0 -48 -2 -48 -22z"/>
</g>
</svg>
