<?xml version="1.0" standalone="no"?>
<!DOCTYPE svg PUBLIC "-//W3C//DTD SVG 20010904//EN"
 "http://www.w3.org/TR/2001/REC-SVG-20010904/DTD/svg10.dtd">
<svg version="1.0" xmlns="http://www.w3.org/2000/svg"
 width="260.000000pt" height="39.000000pt" viewBox="0 0 260.000000 39.000000"
 preserveAspectRatio="xMidYMid meet">

<g transform="translate(0.000000,39.000000) scale(0.100000,-0.100000)"
fill="#000000" stroke="none">
<path d="M475 339 c-22 -4 -59 -8 -83 -8 -46 -1 -56 -23 -14 -29 20 -3 22 -9
21 -60 -1 -93 -11 -136 -37 -147 -25 -11 -32 -51 -6 -41 9 3 51 6 95 6 72 0
79 2 79 20 0 13 -7 20 -20 20 -26 0 -33 31 -28 124 2 55 8 80 22 95 24 27 20
29 -29 20z"/>
<path d="M620 333 c-68 -35 -101 -154 -65 -238 23 -57 88 -67 186 -28 31 12
37 20 42 51 3 20 8 45 12 55 6 15 0 17 -64 17 -67 0 -93 -12 -55 -27 19 -7 36
-47 28 -68 -4 -8 -17 -15 -30 -15 -19 0 -26 8 -39 52 -36 123 -9 198 73 198
51 0 60 -11 20 -24 -22 -7 -34 -18 -36 -33 -3 -18 4 -24 36 -34 22 -6 52 -9
67 -5 22 6 26 11 23 38 -4 42 -42 68 -109 74 -40 4 -63 1 -89 -13z"/>
<path d="M1430 336 c-25 -5 -46 -10 -48 -12 -2 -1 -9 -31 -17 -67 -18 -89 -54
-168 -73 -165 -8 2 -17 -2 -19 -7 -2 -6 22 -16 53 -24 47 -10 58 -10 65 1 6 9
1 14 -16 16 -29 4 -29 3 -13 54 l12 40 44 -5 c53 -6 64 -19 59 -73 l-4 -40 56
4 c31 2 62 5 69 7 18 6 15 23 -5 29 -12 4 -29 36 -47 88 -16 46 -38 101 -50
123 l-21 41 -45 -10z m48 -79 c6 -28 -17 -47 -55 -47 -41 0 -53 22 -27 51 23
25 77 23 82 -4z"/>
<path d="M2247 336 c-4 -10 5 -18 25 -25 l31 -11 -26 -20 c-32 -25 -41 -53
-27 -80 12 -23 60 -50 89 -50 22 0 35 -28 25 -54 -4 -10 -18 -16 -37 -16 -23
0 -28 -3 -20 -11 15 -15 212 -14 226 0 8 8 5 11 -11 11 -25 0 -62 33 -62 54 0
8 12 17 28 21 74 18 90 56 47 119 -22 33 -23 36 -6 36 10 0 21 7 25 15 4 12
-5 15 -48 15 -30 0 -61 3 -70 6 -11 4 -16 0 -16 -14 0 -16 7 -21 32 -24 25 -2
34 -9 41 -32 9 -26 6 -32 -17 -53 -33 -28 -125 -33 -146 -8 -17 20 -5 62 22
76 20 11 17 13 -37 35 -69 28 -62 27 -68 10z"/>
<path d="M40 326 c0 -8 8 -20 19 -25 15 -8 19 -26 24 -93 3 -46 8 -91 12 -100
5 -13 2 -15 -14 -11 -16 4 -21 1 -21 -16 0 -17 6 -21 33 -21 19 0 59 -5 90
-11 44 -9 63 -9 87 1 32 13 60 55 60 87 0 28 -29 63 -51 63 -20 0 -20 0 0 26
12 15 21 37 21 49 0 40 -25 50 -129 50 -53 0 -104 4 -113 9 -13 6 -18 4 -18
-8z m217 -62 c5 -14 -40 -34 -77 -34 -58 0 -79 23 -37 40 29 12 109 8 114 -6z
m14 -113 c20 -16 21 -21 10 -35 -28 -34 -141 -11 -141 29 0 30 96 35 131 6z"/>
<path d="M980 319 c0 -9 6 -19 13 -22 8 -3 18 -37 25 -79 6 -41 14 -81 17 -90
4 -10 -1 -17 -14 -21 -13 -3 -21 -13 -21 -26 0 -20 5 -21 95 -21 159 0 201 35
176 145 -23 100 -55 121 -203 127 -78 4 -88 2 -88 -13z m193 -62 c41 -18 60
-40 60 -72 0 -42 -30 -65 -84 -65 -26 0 -50 4 -54 10 -3 5 -8 39 -12 75 l-6
65 32 0 c17 0 46 -6 64 -13z"/>
<path d="M1620 319 c0 -9 6 -19 13 -22 8 -3 18 -37 25 -79 6 -41 14 -81 17
-90 4 -10 -1 -17 -14 -21 -13 -3 -21 -13 -21 -26 0 -20 5 -21 95 -21 159 0
201 35 176 145 -23 100 -55 121 -203 127 -78 4 -88 2 -88 -13z m193 -62 c41
-18 60 -40 60 -72 0 -42 -30 -65 -84 -65 -26 0 -50 4 -54 10 -3 5 -8 39 -12
75 l-6 65 32 0 c17 0 46 -6 64 -13z"/>
<path d="M1930 320 c0 -10 6 -20 13 -23 8 -3 18 -37 25 -79 6 -41 14 -81 17
-90 4 -10 -1 -17 -14 -21 -13 -3 -21 -13 -21 -26 0 -20 5 -21 95 -21 159 0
201 35 176 145 -23 100 -54 120 -203 128 -80 4 -88 3 -88 -13z m193 -63 c94
-40 74 -137 -29 -137 -23 0 -45 4 -49 10 -3 5 -8 39 -12 75 l-6 65 32 0 c17 0
46 -6 64 -13z"/>
</g>
</svg>
