<?xml version="1.0" standalone="no"?>
<!DOCTYPE svg PUBLIC "-//W3C//DTD SVG 20010904//EN"
 "http://www.w3.org/TR/2001/REC-SVG-20010904/DTD/svg10.dtd">
<svg version="1.0" xmlns="http://www.w3.org/2000/svg"
 width="260.000000pt" height="39.000000pt" viewBox="0 0 260.000000 39.000000"
 preserveAspectRatio="xMidYMid meet">

<g transform="translate(0.000000,39.000000) scale(0.100000,-0.100000)"
fill="#000000" stroke="none">
<path d="M1434 233 c-3 -10 -10 -28 -16 -40 -12 -24 -4 -43 19 -43 13 0 13 3
3 15 -7 9 -10 19 -6 23 4 4 15 -4 25 -17 12 -16 24 -22 35 -18 19 8 12 27 -9
27 -20 0 -28 19 -15 35 6 8 9 19 5 25 -10 16 -35 12 -41 -7z m31 -13 c-3 -5
-10 -10 -16 -10 -5 0 -9 5 -9 10 0 6 7 10 16 10 8 0 12 -4 9 -10z"/>
<path d="M9 231 c9 -6 12 -21 9 -44 -3 -32 -1 -36 26 -41 40 -8 48 3 40 52 -6
41 -7 42 -48 42 -27 0 -36 -3 -27 -9z m61 -16 c0 -8 -9 -15 -20 -15 -11 0 -20
7 -20 15 0 8 9 15 20 15 11 0 20 -7 20 -15z m10 -45 c0 -5 -9 -10 -19 -10 -11
0 -23 5 -26 10 -4 6 5 10 19 10 14 0 26 -4 26 -10z"/>
<path d="M134 233 c-17 -3 -20 -10 -16 -35 3 -19 0 -33 -9 -39 -10 -6 -4 -9
19 -9 29 0 31 2 20 19 -9 15 -9 25 0 45 6 14 11 25 9 25 -1 -1 -11 -4 -23 -6z"/>
<path d="M173 214 c-19 -30 -9 -57 23 -61 10 -2 13 0 7 3 -19 8 -17 74 2 74 8
0 14 -5 13 -12 -2 -6 5 -14 15 -16 22 -4 23 24 1 32 -29 11 -43 6 -61 -20z"/>
<path d="M871 205 c6 -19 7 -40 4 -45 -3 -6 1 -10 9 -10 9 0 16 7 16 15 0 8 7
15 15 15 8 0 15 -7 15 -15 0 -8 6 -15 13 -15 8 0 12 16 12 45 0 34 -3 44 -13
40 -8 -3 -15 -5 -17 -5 -2 0 -1 -9 2 -20 4 -14 0 -20 -12 -20 -13 0 -16 6 -13
25 4 21 1 25 -18 25 -21 0 -22 -2 -13 -35z"/>
<path d="M984 223 c-18 -19 -18 -38 2 -57 19 -19 38 -20 52 -3 8 9 3 12 -21
12 -22 0 -32 5 -32 15 0 18 41 26 59 11 10 -9 15 -7 19 9 9 34 26 23 20 -14
-4 -28 -2 -35 16 -41 28 -8 61 3 61 21 0 8 -9 14 -21 14 -15 0 -19 -5 -15 -15
3 -8 1 -15 -4 -15 -6 0 -10 16 -10 35 0 38 13 46 29 18 9 -16 10 -16 11 4 0
22 -3 23 -76 21 -50 -1 -80 -6 -90 -15z"/>
<path d="M1175 195 l0 -45 38 0 c25 0 40 5 44 15 9 24 -7 32 -22 11 -8 -10
-18 -15 -24 -11 -16 9 -13 25 4 25 8 0 15 8 14 18 0 10 -3 12 -6 5 -7 -18 -23
-16 -23 2 0 18 36 20 43 3 3 -8 6 -6 6 5 1 13 -7 17 -36 17 l-38 0 0 -45z"/>
<path d="M1275 231 c2 -4 5 -24 7 -45 2 -36 3 -37 38 -34 28 2 36 8 38 26 3
23 -21 32 -33 12 -3 -5 1 -10 9 -10 9 0 16 -4 16 -10 0 -15 -40 -12 -41 3 -1
6 0 22 0 33 2 14 -5 23 -18 27 -12 3 -19 2 -16 -2z"/>
<path d="M1573 226 c3 -8 2 -29 -3 -45 -8 -27 -6 -31 11 -31 18 0 20 6 17 38
-3 33 -1 37 21 37 13 0 26 -6 29 -12 2 -8 -5 -13 -18 -13 -32 0 -24 -44 9 -48
23 -4 24 -3 6 14 -17 17 -17 18 4 28 39 17 21 41 -33 44 -40 3 -48 1 -43 -12z"/>
<path d="M1689 231 c9 -6 12 -21 9 -44 l-4 -36 83 2 c81 3 112 14 99 36 -4 6
-18 11 -32 11 -16 0 -24 5 -23 18 0 10 3 12 6 5 6 -15 43 -18 43 -3 0 18 -51
24 -67 7 -18 -18 -9 -37 18 -37 11 0 19 -7 19 -17 0 -14 -2 -15 -9 -4 -5 8
-18 12 -29 8 -12 -2 -22 -1 -24 5 -2 5 -11 6 -21 3 -9 -4 -14 -12 -11 -17 4
-6 1 -9 -6 -6 -20 6 -24 28 -6 28 9 0 16 7 16 15 0 8 5 15 10 15 6 0 10 5 10
10 0 6 -21 10 -47 10 -31 0 -43 -3 -34 -9z m55 -16 c-4 -8 -10 -15 -15 -15 -5
0 -9 7 -9 15 0 8 7 15 15 15 9 0 12 -6 9 -15z"/>
<path d="M1892 233 c14 -3 15 -9 7 -30 -14 -37 10 -61 48 -47 34 12 42 34 13
34 -16 0 -20 -4 -16 -15 6 -17 -9 -21 -19 -4 -9 14 3 59 15 59 6 0 10 -8 10
-17 0 -15 2 -16 10 -3 17 26 11 30 -37 29 -27 -1 -40 -3 -31 -6z"/>
<path d="M2028 232 c-11 -2 -18 -13 -18 -27 0 -13 -7 -31 -16 -39 -8 -9 -10
-16 -4 -16 6 0 13 7 16 15 8 19 44 20 44 0 0 -17 67 -19 88 -2 6 5 12 6 12 1
0 -5 18 -10 40 -11 37 -2 40 -1 41 25 1 15 1 33 0 40 -2 9 6 12 20 10 30 -4
37 -28 9 -28 -16 0 -20 -4 -16 -16 3 -9 6 -20 6 -25 0 -5 9 -9 21 -9 19 0 19
1 3 17 -16 16 -15 18 5 27 11 5 21 18 21 28 0 17 -6 19 -47 16 -36 -2 -47 -7
-45 -17 2 -8 1 -25 -3 -38 -8 -33 -28 -17 -23 18 3 17 -1 30 -9 33 -8 3 -13
-2 -13 -12 0 -23 -26 -59 -36 -50 -4 5 -2 19 4 33 10 23 9 25 -11 25 -13 0
-17 -3 -11 -8 8 -5 6 -16 -7 -36 l-17 -28 -19 39 c-13 28 -23 38 -35 35z m22
-32 c0 -5 -7 -10 -15 -10 -8 0 -15 5 -15 10 0 6 7 10 15 10 8 0 15 -4 15 -10z"/>
<path d="M2363 233 c-7 -2 -17 -20 -23 -39 -12 -35 -30 -46 -30 -19 0 16 -16
20 -24 7 -4 -8 13 -20 56 -39 3 -2 4 6 1 17 -4 15 0 20 16 20 12 0 21 -6 21
-15 0 -8 9 -15 20 -15 19 0 19 1 1 40 -21 47 -22 49 -38 43z m17 -33 c0 -5 -7
-10 -15 -10 -8 0 -15 5 -15 10 0 6 7 10 15 10 8 0 15 -4 15 -10z"/>
<path d="M2430 203 c5 -20 7 -41 4 -45 -3 -4 2 -8 10 -8 8 0 16 10 18 22 2 12
9 23 17 26 10 3 13 -2 9 -22 -4 -19 -1 -26 11 -26 13 0 16 8 13 40 -5 47 -14
56 -36 34 -15 -14 -16 -14 -16 0 0 9 -8 16 -19 16 -17 0 -18 -4 -11 -37z"/>
<path d="M2532 233 c13 -3 15 -9 8 -28 -11 -29 9 -59 36 -53 20 4 33 38 14 38
-7 0 -10 -7 -6 -15 6 -17 -9 -21 -19 -4 -9 13 3 59 14 59 5 0 12 -8 14 -17 4
-14 5 -12 6 5 1 20 -3 22 -41 21 -24 -1 -35 -3 -26 -6z"/>
<path d="M1486 213 c-11 -11 -6 -23 9 -23 8 0 15 4 15 9 0 13 -16 22 -24 14z"/>
<path d="M216 175 c4 -8 10 -15 15 -15 5 0 9 7 9 15 0 8 -7 15 -15 15 -9 0
-12 -6 -9 -15z"/>
<path d="M1656 181 c-3 -5 1 -11 9 -15 9 -3 15 0 15 9 0 16 -16 20 -24 6z"/>
</g>
</svg>
